<?xml version="1.0" standalone="no"?><!DOCTYPE svg PUBLIC "-//W3C//DTD SVG 1.1//EN" "http://www.w3.org/Graphics/SVG/1.1/DTD/svg11.dtd"><svg class="icon" width="50px" height="50.00px" viewBox="0 0 1024 1024" version="1.1" xmlns="http://www.w3.org/2000/svg"><path d="M1024 862.874791C1024 968.656372 766.428279 1024 512 1024 257.571721 1024 0 968.656372 0 862.874791 0 769.000186 198.394047 729.87386 283.719442 717.395349 296.364651 715.609302 308.152558 724.539535 309.962419 737.446698 311.796093 750.377674 302.98493 762.356093 290.292093 764.213581 112.616186 790.170791 46.413395 838.513116 46.413395 862.874791 46.413395 909.288186 227.780465 976.729302 512 976.729302 796.219535 976.729302 977.586605 909.288186 977.586605 862.874791 977.586605 838.322605 910.740837 789.718326 731.350326 763.880186 718.657488 762.046512 709.822512 750.068093 711.608558 737.16093 713.418419 724.229953 725.206326 715.323535 737.827721 717.061953 823.867535 729.469023 1024 768.476279 1024 862.874791L1024 862.874791ZM413.81507 301.246512C413.81507 246.093395 457.84707 201.227907 511.976186 201.227907 566.129116 201.227907 610.18493 246.093395 610.18493 301.246512 610.18493 356.399628 566.129116 401.28893 511.976186 401.28893 457.84707 401.28893 413.81507 356.399628 413.81507 301.246512L413.81507 301.246512ZM656.598326 301.246512C656.598326 220.017116 591.729116 153.933395 511.976186 153.933395 432.270884 153.933395 367.425488 220.017116 367.425488 301.246512 367.425488 382.475907 432.270884 448.559628 511.976186 448.559628 591.729116 448.559628 656.598326 382.475907 656.598326 301.246512L656.598326 301.246512ZM512 47.270698C654.764651 47.270698 770.929116 165.626047 770.929116 311.105488 770.929116 512.666791 570.391814 739.137488 511.809488 800.982326 453.060465 740.256744 253.070884 518.286884 253.070884 311.105488 253.070884 165.626047 369.211535 47.270698 512 47.270698L512 47.270698ZM496.139907 851.634605 512.190512 866.899349 528.050605 851.444093C539.862326 839.91814 817.342512 566.200558 817.342512 311.105488 817.342512 139.549767 680.364651 0 512 0 343.635349 0 206.657488 139.549767 206.657488 311.105488 206.657488 573.082791 484.328186 840.394419 496.139907 851.658419L496.139907 851.634605Z" fill="#666666" /></svg>