<?xml version="1.0" standalone="no"?><!DOCTYPE svg PUBLIC "-//W3C//DTD SVG 1.1//EN" "http://www.w3.org/Graphics/SVG/1.1/DTD/svg11.dtd"><svg class="icon" width="50px" height="50.00px" viewBox="0 0 1024 1024" version="1.1" xmlns="http://www.w3.org/2000/svg"><path d="M344.902796 497.150804M625.981473 627.40438 305.65184 627.40438c-6.726192 0-12.33084 2.242064-16.815991 6.725168-4.484128 4.485151-6.727215 9.94756-6.727215 16.387225s2.242064 12.044314 6.727215 16.814967 10.089799 7.157004 16.815991 7.157004l-0.024559 0.002047 320.329633 0c4.484128 0 8.411577-1.121544 11.782348-3.363607 3.374864-2.242064 6.036483-5.186116 7.993045-8.826016 1.952468-3.641947 2.929726-7.427156 2.929726-11.354606 0.001023-6.725168-2.097778-12.331863-6.294356-16.817014C638.169049 629.647467 632.706641 627.40438 625.981473 627.40438zM625.981473 486.153332 305.65184 486.153332l-0.079818 0.025583c-6.726192 0-12.331863 2.242064-16.815991 6.727215-4.484128 4.484128-6.726192 10.088776-6.726192 16.815991 0 3.927449 1.121544 7.712659 3.364631 11.352559 2.242064 3.64297 5.048993 6.583952 8.419763 8.826016 3.371794 2.242064 7.300266 3.363607 11.784394 3.363607l320.328609 0c3.355421 0 6.439666-0.699941 9.255805-2.098801s5.202489-3.084245 7.15598-5.057179c1.955538-1.972934 3.498684-4.360308 4.628414-7.158027 1.12973-2.795673 1.693572-5.882987 1.693572-9.254781 0.001023-6.726192-2.097778-12.331863-6.294356-16.815991C638.169049 488.396419 632.706641 486.153332 625.981473 486.153332zM625.981473 344.905354 305.65184 344.905354c-6.726192 0.001023-12.33084 2.242064-16.815991 6.727215-4.484128 4.483104-6.727215 9.94449-6.727215 16.384156 0 6.439666 2.242064 12.045337 6.727215 16.814967 4.484128 4.771677 10.089799 7.157004 16.815991 7.157004l320.329633 0c6.726192 0.001023 12.187577-2.385327 16.385179-7.157004 4.196579-4.771677 6.294356-10.376325 6.294356-16.814967 0.001023-6.439666-2.097778-11.900028-6.294356-16.384156C638.169049 347.146395 632.706641 344.905354 625.981473 344.905354zM425.861666 243.580644c2.226714 1.973958 4.745071 3.659343 7.562233 5.058203 2.815115 1.39886 5.623068 2.097778 8.420787 2.097778L625.980449 250.736625c6.726192 0 12.1886-2.384303 16.385179-7.15598 4.197602-4.771677 6.294356-10.377348 6.29538-16.815991 0-6.438643-2.098801-11.900028-6.29538-16.385179-4.197602-4.484128-9.657964-6.726192-16.385179-6.726192L441.843662 203.653283l-0.025583-0.025583c-1.685385 0-3.928472 0.277316-6.726192 0.832971-10.654664 3.371794-15.980973 10.94119-15.980973 22.707165-0.01842 3.372817 0.545422 6.458085 1.693572 9.254781S423.638021 241.60771 425.861666 243.580644zM827.712987 232.201479c-2.242064-5.614881-5.461385-10.519588-9.657964-14.71719-4.196579-4.197602-9.103332-7.561209-14.71719-10.089799-5.614881-2.52859-11.498892-3.792373-17.649985-3.793396l0.026606 0.052189-45.416376 0 0-47.083341c0-12.896728-4.484128-23.962761-13.45136-33.200146-8.969279-9.237385-19.621896-13.864776-31.962969-13.883195l-456.54806 0c-12.340049 0-22.994714 4.627391-31.962969 13.883195-8.968256 9.255805-13.452383 20.321838-13.452383 33.200146l0 565.001121c0 12.897751 4.484128 23.963785 13.452383 33.199123 8.967232 9.237385 19.621896 13.866822 31.962969 13.884218l46.248324 0 0 47.084365c0 12.897751 4.340865 23.961738 13.022595 33.199123 8.680706 9.237385 19.469424 13.864776 32.366152 13.884218L785.687848 862.822111c6.169513 0 12.051477-1.264806 17.649985-3.793396 5.595438-2.530636 10.501168-5.894244 14.71719-10.088776 4.216022-4.197602 7.436366-9.245572 9.657964-15.148002 2.224668-5.90243 3.346211-11.927657 3.363607-18.079774L831.076594 250.712065C831.076594 243.985874 829.95812 237.815337 827.712987 232.201479zM237.825059 724.297151 237.825059 724.297151l-0.001023-573.002352 0.001023 0 461.019909 0 0.001023 0 0 24.766057 0 523.471262 0 24.765033-0.001023 0L237.825059 724.297151zM785.715477 815.738769 785.715477 815.738769 330.001411 815.738769l0-47.084365 364.909967 0c7.855922 0 15.282055-2.098801 22.278399-6.29538s12.599969-9.945513 16.814967-17.244756c4.214998-7.30129 6.313799-15.148002 6.294356-23.544229l0-470.833415 45.417399 0L785.7165 815.738769z" fill="#666666" /></svg>