<?xml version="1.0" standalone="no"?><!DOCTYPE svg PUBLIC "-//W3C//DTD SVG 1.1//EN" "http://www.w3.org/Graphics/SVG/1.1/DTD/svg11.dtd"><svg class="icon" width="50px" height="50.00px" viewBox="0 0 1024 1024" version="1.1" xmlns="http://www.w3.org/2000/svg"><path d="M887.284757 741.770104C835.141166 591.664388 696.033945 485.599723 538.055934 474.115158l0-56.650231c76.403111-13.159718 134.778636-79.733972 134.778636-159.857824 0-89.521896-72.843028-162.361855-162.362878-162.361855-89.532129 0-162.374134 72.839959-162.374134 162.361855 0 80.123852 58.373479 146.695037 134.789892 159.857824l0 56.509015C322.391083 484.542648 184.001199 589.725222 131.490242 743.119845c-38.698371 11.983939-66.894549 48.109718-66.894549 90.688465 0 52.358485 42.587957 94.947466 94.937233 94.947466 52.358485 0 94.946442-42.588981 94.946442-94.947466 0-41.681308-27.054169-77.106122-64.497966-89.826841 48.900733-121.794927 162.130587-204.745151 292.904003-214.747969l0 214.262922c-38.144762 12.319583-65.827241 48.12916-65.827241 90.314958 0 52.356438 42.588981 94.945419 94.945419 94.945419 52.348252 0 94.936209-42.588981 94.936209-94.945419 0-43.300178-29.182646-79.843466-68.885903-91.212398l0-213.205846c129.488143 10.92891 243.652276 95.574752 291.744597 216.129432-35.242665 13.884218-60.276828 48.183396-60.276828 88.285742 0 52.358485 42.585911 94.947466 94.937233 94.947466 52.357462 0 94.945419-42.588981 94.945419-94.947466C959.404308 789.342586 928.623257 752.025679 887.284757 741.770104zM159.532925 873.587292c-21.927405 0-39.768749-17.842367-39.768749-39.778982 0-21.927405 17.84339-39.757492 39.768749-39.757492 21.937638 0 39.777959 17.830087 39.777959 39.757492C199.310883 855.744925 181.46954 873.587292 159.532925 873.587292zM403.266042 257.608126c0-59.110259 48.084135-107.193371 107.205651-107.193371 59.100026 0 107.194394 48.083112 107.194394 107.193371 0 59.117422-48.094368 107.212814-107.194394 107.212814C451.350177 364.820939 403.266042 316.725548 403.266042 257.608126zM551.774377 833.80831c0 21.937638-17.841344 39.778982-39.768749 39.778982-21.936615 0-39.777959-17.842367-39.777959-39.778982 0-21.927405 17.84339-39.757492 39.777959-39.757492C533.933033 794.050818 551.774377 811.880905 551.774377 833.80831zM864.458889 873.587292c-21.927405 0-39.768749-17.842367-39.768749-39.778982 0-21.927405 17.84339-39.757492 39.768749-39.757492 21.936615 0 39.777959 17.830087 39.777959 39.757492C904.236847 855.744925 886.395504 873.587292 864.458889 873.587292z" fill="#666666" /></svg>