<?xml version="1.0" standalone="no"?><!DOCTYPE svg PUBLIC "-//W3C//DTD SVG 1.1//EN" "http://www.w3.org/Graphics/SVG/1.1/DTD/svg11.dtd"><svg t="1495422767417" class="icon" style="" viewBox="0 0 1024 1024" version="1.1" xmlns="http://www.w3.org/2000/svg" p-id="7142" xmlns:xlink="http://www.w3.org/1999/xlink" width="50" height="50"><defs><style type="text/css"></style></defs><path d="M512 512" p-id="7143" fill="#999999"></path><path d="M760.6 1024l-3.4-0.5-2.2-0.5-1.9-0.7-2-0.8-2.1-1.2-1.4-1-224.1-122.7c-5.3-2.9-9.3-7.5-11.5-13-2.2 5.5-6.2 10.1-11.5 13l-229 125.6-3 0.8-4 0.7-2.4 0.2-2.3-0.1-4-0.6-2.5-0.7-3.5-1.6L23.1 896.7c-5.7-3.1-9.9-8.2-12-14.2l-1 0-0.4-5-0.1-3.4L9.6 572.6c0-10.7 6.6-20.4 16.4-24.2L265.1 434.7l0-294.3c0-10.6 6.6-20.4 16.4-24.2L525.7 0l0 3.3c3.6 0.1 7.1 1.1 10.4 2.7l217.7 110.4c9.4 3.6 15.7 13.1 15.7 23.9l0 292.5 0.5 2.7c3.9 0 7.6 1 11.2 2.7l217.7 110.4c9.4 3.6 15.7 13.1 15.7 23.9l0 309.9-1.5 0c-2.1 6-6.3 11.1-12 14.2l-229 125.6-3.2 0.8-4.1 0.8-1.9 0.1L760.6 1024 760.6 1024zM790 956.5l174.7-95.7L964.7 618.5 790 714.2 790 956.5 790 956.5zM289.8 956.5l174.7-95.7L464.5 618.5l-174.7 95.8L289.8 956.5 289.8 956.5zM736.4 954.3 736.4 712l-72.9-40 0 53.7-60.4-28.5L603.1 639l-41.5-22.7 0 242.3L736.4 954.3 736.4 954.3zM235.9 954.3 235.9 712l-72.9-40 0 53.7-60.4-28.5L102.6 639l-41.5-22.7 0 242.3L235.9 954.3 235.9 954.3zM762.2 667.1l170.9-93.6-66.9-34-172.6 90L762.2 667.1 762.2 667.1zM261.7 667.1l170.9-93.6-66.9-34-172.6 90L261.7 667.1 261.7 667.1zM129.3 594.5l170-88.6L268.8 490.4 92.3 574.2 129.3 594.5 129.3 594.5zM629.7 594.5l170-88.6-30.5-15.5-176.4 83.9L629.7 594.5 629.7 594.5zM491.7 528.1l0-242.3-72.9-40 0 53.7L358.5 271l0-58.3L317 190.1l0 242.3L491.7 528.1 491.7 528.1zM546.3 523.5l174.7-95.8 0-242.3-174.7 95.8L546.3 523.5zM517.2 234.9l171.1-95.9-67-34-172.8 92.2L517.2 234.9 517.2 234.9zM397 168.3l170.1-90.8-41.4-20.6-176.5 86L397 168.3 397 168.3z" p-id="7144" fill="#999999"></path></svg>