<?xml version="1.0" standalone="no"?><!DOCTYPE svg PUBLIC "-//W3C//DTD SVG 1.1//EN" "http://www.w3.org/Graphics/SVG/1.1/DTD/svg11.dtd"><svg t="1495423084477" class="icon" style="" viewBox="0 0 1024 1024" version="1.1" xmlns="http://www.w3.org/2000/svg" p-id="10595" xmlns:xlink="http://www.w3.org/1999/xlink" width="50" height="50"><defs><style type="text/css"></style></defs><path d="M512 358.4c0 30.72-20.48 51.2-51.2 51.2H256c-30.72 0-51.2-20.48-51.2-51.2s20.48-51.2 51.2-51.2h204.8c30.72 0 51.2 20.48 51.2 51.2z m102.4-51.2c0-56.32-46.08-102.4-102.4-102.4H204.8c-56.32 0-102.4 46.08-102.4 102.4v102.4c0 56.32 46.08 102.4 102.4 102.4h307.2c56.32 0 102.4-46.08 102.4-102.4V307.2z m153.6 614.4c-30.72 0-51.2-20.48-51.2-51.2 0-35.84 25.6-46.08 51.2-51.2 25.6 10.24 51.2 20.48 51.2 51.2s-20.48 51.2-51.2 51.2zM153.6 921.6c-30.72 0-51.2-20.48-51.2-51.2 0-35.84 25.6-46.08 51.2-51.2 25.6 10.24 51.2 20.48 51.2 51.2s-20.48 51.2-51.2 51.2zM819.2 153.6c0-30.72 20.48-51.2 51.2-51.2h102.4c30.72 0 51.2-20.48 51.2-51.2s-20.48-51.2-51.2-51.2h-153.6c-56.32 0-102.4 46.08-102.4 102.4v512H204.8c-56.32 0-102.4 46.08-102.4 102.4v10.24c-66.56 25.6-112.64 97.28-97.28 174.08 10.24 61.44 61.44 107.52 122.88 117.76C220.16 1039.36 307.2 962.56 307.2 870.4c0-66.56-40.96-122.88-102.4-143.36V716.8h512v10.24c-66.56 25.6-112.64 97.28-97.28 174.08 10.24 61.44 61.44 107.52 122.88 117.76 97.28 15.36 184.32-56.32 184.32-148.48 0-66.56-40.96-122.88-102.4-143.36V153.6z" fill="#999999" p-id="10596"></path></svg>