<?xml version="1.0" standalone="no"?><!DOCTYPE svg PUBLIC "-//W3C//DTD SVG 1.1//EN" "http://www.w3.org/Graphics/SVG/1.1/DTD/svg11.dtd"><svg t="1495422715516" class="icon" style="" viewBox="0 0 1024 1024" version="1.1" xmlns="http://www.w3.org/2000/svg" p-id="6411" xmlns:xlink="http://www.w3.org/1999/xlink" width="50" height="50"><defs><style type="text/css"></style></defs><path d="M896 704 896 512l-64 0L576 512 576 384l192 0L768 64 320 64l0 320 192 0 0 128L256 512 192 512l0 64 0 128L0 704l0 320 384 0 0-320L256 704 256 576l576 0 0 128-192 0 0 320 384 0 0-320L896 704zM384 320 384 128l320 0 0 192L384 320zM320 768l0 192L64 960l0-192L320 768zM960 960l-256 0 0-192 256 0L960 960z" p-id="6412" fill="#999999"></path></svg>