<?xml version="1.0" standalone="no"?><!DOCTYPE svg PUBLIC "-//W3C//DTD SVG 1.1//EN" "http://www.w3.org/Graphics/SVG/1.1/DTD/svg11.dtd"><svg t="1495422972622" class="icon" style="" viewBox="0 0 1024 1024" version="1.1" xmlns="http://www.w3.org/2000/svg" p-id="9691" xmlns:xlink="http://www.w3.org/1999/xlink" width="50" height="50"><defs><style type="text/css"></style></defs><path d="M793.756105 69.664639c-37.794791 0-69.075215 27.918863-73.655534 63.869656-28.887934 26.568099-168.516018 147.95268-303.46043 147.95268-70.653153 0-128.122029 56.488549-128.122029 125.936247l0 158.861124c0 69.447698 57.468876 125.936247 128.122029 125.936247 134.867664 0 274.54589 121.382535 303.46043 147.95268 4.580319 35.924187 35.884278 63.818491 73.655534 63.818491 40.952714 0 74.243935-32.722262 74.243935-72.92694L868.00004 142.639674C868.00004 102.387925 834.683237 69.664639 793.756105 69.664639zM827.276547 831.093479c0 18.137079-15.015995 32.898271-33.520441 32.898271-18.452257 0-33.493835-14.734586-33.493835-32.898271 0-5.304819-2.137687-10.408047-5.981225-14.159488-6.845918-6.732331-170.016185-164.688853-337.614298-164.688853-48.180326 0-87.402629-38.553061-87.402629-85.936231L329.264119 407.449829c0-47.38317 39.195697-85.936231 87.402629-85.936231 167.394475 0 330.718237-157.957545 337.614298-164.686806 3.820002-3.75451 5.981225-8.855692 5.981225-14.187117 0-18.161638 15.018042-32.946366 33.493835-32.946366 18.504446 0 33.546024 14.784728 33.520441 32.946366L827.276547 831.093479zM255.048837 281.486976l-53.855582 0c-84.117816 0-128.122029 63.345724-128.122029 125.936247l0 158.861124c0 60.592007 47.569412 112.701828 107.762329 122.485659l0 221.72794c0 25.616424 21.199835 46.481637 47.263443 46.481637 26.061562 0 47.288003-20.865213 47.313585-46.481637L275.410584 301.500798C275.410584 290.441928 266.299065 281.486976 255.048837 281.486976zM234.662531 910.497946c0 7.128351-13.134135 7.128351-13.134135 0L221.528396 670.382217c0-11.056823-9.109472-20.013823-20.3597-20.013823-51.489698 0-87.400582-44.307112-87.400582-84.084047L113.768113 407.424246c0-41.401945 27.360138-85.934185 87.400582-85.934185l33.493835 0L234.662531 910.497946zM928.446737 62.61099c-11.248182 0-20.361747 8.956999-20.361747 20.013823l0 809.16198c0 11.056823 9.137101 20.013823 20.361747 20.013823 11.250228 0 20.361747-8.980535 20.361747-20.013823L948.808484 82.623789C948.808484 71.566966 939.696965 62.61099 928.446737 62.61099z" p-id="9692" fill="#999999"></path></svg>