<?xml version="1.0" standalone="no"?><!DOCTYPE svg PUBLIC "-//W3C//DTD SVG 1.1//EN" "http://www.w3.org/Graphics/SVG/1.1/DTD/svg11.dtd"><svg class="icon" width="50px" height="50.00px" viewBox="0 0 1024 1024" version="1.1" xmlns="http://www.w3.org/2000/svg"><path d="M954.654121 854.098425 67.298244 854.098425c-2.578732 0-4.669346-2.090615-4.669346-4.669346L62.628898 174.570921c0-2.579755 2.090615-4.670369 4.669346-4.670369l887.355877 0c2.579755 0 4.670369 2.090615 4.670369 4.670369L959.32449 849.429079C959.325513 852.007811 957.233875 854.098425 954.654121 854.098425zM895.273708 212.661448 126.675586 212.661448c-23.582091 0-21.350261-2.235924-21.350261 21.381983l0 555.908022c0 23.61893-2.232854 21.381983 21.350261 21.381983L895.273708 811.333436c23.581068 0 21.349237 2.237971 21.349237-21.381983L916.622946 234.042407C916.622946 210.425523 918.854776 212.661448 895.273708 212.661448zM871.59031 383.713218 150.362055 383.713218c-1.289366 0-2.335185-1.045819-2.335185-2.335185l0-38.092573c0-1.289366 1.045819-2.335185 2.335185-2.335185l721.228255 0c1.289366 0 2.335185 1.044796 2.335185 2.335185l0 38.092573C873.925495 382.6674 872.879676 383.713218 871.59031 383.713218zM639.075699 469.236034l170.797991 0c11.791557 0 21.350261 9.572006 21.350261 21.38096l0 128.286782c0 11.808954-9.558703 21.381983-21.350261 21.381983L639.075699 640.285758c-11.791557 0-21.351284-9.572006-21.351284-21.381983L617.724415 490.61597C617.723392 478.80804 627.283118 469.236034 639.075699 469.236034zM660.425959 597.523839l128.099517 0 0-85.523839L660.425959 512 660.425959 597.523839z" fill="#666666" /></svg>