<?xml version="1.0" standalone="no"?><!DOCTYPE svg PUBLIC "-//W3C//DTD SVG 1.1//EN" "http://www.w3.org/Graphics/SVG/1.1/DTD/svg11.dtd"><svg class="icon" width="50px" height="50.00px" viewBox="0 0 1024 1024" version="1.1" xmlns="http://www.w3.org/2000/svg"><path d="M96 255.947915 96 255.947915 96 768.052085C96 829.876034 146.126404 880 207.957901 880L816.042099 880C877.883944 880 928 829.884045 928 768.052085L928 255.947915C928 194.123966 877.873595 144 816.042099 144L207.957901 144C146.116056 144 96 194.115955 96 255.947915L96 255.947915ZM64 255.947915C64 176.447677 128.43811 112 207.957901 112L816.042099 112C895.547853 112 960 176.451998 960 255.947915L960 768.052085C960 847.552323 895.56189 912 816.042099 912L207.957901 912C128.452148 912 64 847.548002 64 768.052085L64 255.947915 64 255.947915Z" fill="#666666" /><path d="M111.322826 368 385.3614 368 401.3614 368 401.3614 336 385.3614 336 111.322826 336 95.322826 336 95.322826 368 111.322826 368 111.322826 368Z" fill="#666666" /><path d="M640 368 914.038574 368 930.038574 368 930.038574 336 914.038574 336 640 336 624 336 624 368 640 368 640 368Z" fill="#666666" /><path d="M592 590.666299 592 112 624 146.133333 400 146.133333 432 112 432 590.790544C422.673435 599.770651 414.595259 608.162221 408.888494 614.263386L400 610.518763 400 575.859022C406.910362 568.88705 414.036963 562.006691 421.265251 555.405262 430.260117 547.190458 439.047443 539.748808 447.555483 533.248837 471.446555 514.996539 491.933467 504.533333 512 504.533333 531.999213 504.533333 552.392725 514.834416 576.009917 532.778086 584.718976 539.394982 593.712302 547.00548 602.915909 555.42951 610.086699 561.99291 617.151637 568.831494 624 575.761616L624 610.573085 615.168848 614.278557C609.46068 608.148026 601.361427 599.700675 592 590.666299L592 590.666299ZM400 112 624 112 624 624C624 624 549.539518 538.666667 512 538.666667 474.872853 538.666667 400 624 400 624L400 112 400 112Z" fill="#666666" /><path d="M168 464 280 464C288.836555 464 296 456.836555 296 448 296 439.163445 288.836555 432 280 432L168 432C159.163444 432 152 439.163445 152 448 152 456.836555 159.163444 464 168 464L168 464Z" fill="#666666" /></svg>