<?xml version="1.0" standalone="no"?><!DOCTYPE svg PUBLIC "-//W3C//DTD SVG 1.1//EN" "http://www.w3.org/Graphics/SVG/1.1/DTD/svg11.dtd"><svg class="icon" width="52px" height="52.00px" viewBox="0 0 1024 1024" version="1.1" xmlns="http://www.w3.org/2000/svg"><path d="M777.984 960a126.933333 126.933333 0 0 1-125.056-128.533333 173.952 173.952 0 0 1 2.133333-17.344H430.229333c-2.837333 1.493333 3.370667 0 0 0h-61.333333l-9.749333 4.714666a126.549333 126.549333 0 0 1-124.309334 113.941334 138.197333 138.197333 0 0 1-131.712-118.656H41.770667A17.066667 17.066667 0 0 1 21.333333 797.525333v-331.306666a21.994667 21.994667 0 0 1 2.986667-11.136l110.933333-186.282667a116.757333 116.757333 0 0 1 110.933334-59.029333h163.562666C413.290667 131.584 474.474667 64 551.509333 64h307.434667A145.898667 145.898667 0 0 1 1002.666667 211.690667v488.746666a115.2 115.2 0 0 1-100.48 115.498667 139.370667 139.370667 0 0 1 0.853333 15.530667A126.933333 126.933333 0 0 1 777.984 960z m0-214.421333a85.930667 85.930667 0 1 0 83.605333 85.909333 84.928 84.928 0 0 0-83.605333-85.909333z m-543.146667-27.242667a85.952 85.952 0 0 0 0 171.861333 85.973333 85.973333 0 0 0 0-171.861333z m0-42.666667a126.101333 126.101333 0 0 1 122.112 100.714667c0.917333-0.106667-9.472-3.946667-8.533333-3.946667h61.333333V251.541333h-163.52a76.8 76.8 0 0 0-75.690666 39.829334l-107.733334 180.885333-0.576 300.202667h61.333334c12.522667-57.472 51.690667-96.768 111.274666-96.768z m215.829334 96.768h224.896a110.165333 110.165333 0 0 1 102.4-69.482666 124.906667 124.906667 0 0 1 111.872 70.997333 72.64 72.64 0 0 0 71.36-73.536V211.690667a104.149333 104.149333 0 0 0-101.653334-106.005334H552.896a103.04 103.04 0 0 0-102.229333 104.192v562.581334l-1.408 1.514666z m-163.562667-270.933333H144c-11.477333 0-16.725333-18.730667-16.725333-30.549333s25.6-11.114667 37.162666-11.114667H266.666667V334.933333a20.437333 20.437333 0 1 1 40.896 0v145.856a20.330667 20.330667 0 0 1-20.437334 20.842667z m0 0" fill="#666666" /></svg>