<?xml version="1.0" encoding="utf-8"?>
<!-- Generator: Adobe Illustrator 16.0.0, SVG Export Plug-In . SVG Version: 6.00 Build 0)  -->
<!DOCTYPE svg PUBLIC "-//W3C//DTD SVG 1.1//EN" "http://www.w3.org/Graphics/SVG/1.1/DTD/svg11.dtd">
<svg version="1.1" id="图层_1" xmlns="http://www.w3.org/2000/svg" xmlns:xlink="http://www.w3.org/1999/xlink" x="0px" y="0px"
	 width="50px" height="50px" viewBox="0 0 50 50" enable-background="new 0 0 50 50" xml:space="preserve">
<path fill="#666666" d="M6.811,47.338c-2.562,0-4.645-2.082-4.645-4.646V10.625c0-2.326,1.72-4.259,3.954-4.593l0,0l0.865-0.048
	C7.011,5.982,7.037,5.981,7.06,5.981h18.606c0.416,0,0.756,0.339,0.756,0.756s-0.34,0.756-0.756,0.756H7.06
	c-0.023,0-0.049-0.001-0.074-0.003l-0.865,0.08l0,0c-1.396,0.316-2.442,1.566-2.442,3.056v32.067c0,1.729,1.405,3.133,3.132,3.133
	h34.487c1.728,0,3.133-1.404,3.133-3.133V24.738c0-0.416,0.339-0.755,0.757-0.755c0.415,0,0.754,0.339,0.754,0.755v17.954
	c0,2.563-2.082,4.646-4.644,4.646H6.811z M15.218,38.445c-0.207,0-0.757,0-1.109-0.353c-0.35-0.349-0.422-0.925-0.256-2.052
	c0.096-0.656,0.277-1.516,0.538-2.552c0.437-1.741,0.946-3.383,0.967-3.45l0.056-0.178L37.835,7.44l2.592-3.057l0.019-0.019
	c0.399-0.398,0.944-0.618,1.533-0.618c0.684,0,1.372,0.295,1.885,0.809l3.735,3.736c0.466,0.465,0.752,1.065,0.8,1.687
	c0.055,0.654-0.164,1.281-0.601,1.722l-0.052,0.049l-2.979,2.612L22.341,36.785l-0.176,0.056
	C20.289,37.438,16.715,38.445,15.218,38.445z M16.687,30.866c-0.56,1.841-1.063,3.815-1.283,5.028l-0.202,1.111l1.114-0.194
	c1.419-0.249,3.526-0.832,5.025-1.296l1.25-0.388l-5.522-5.521L16.687,30.866z M18.507,28.906l4.788,4.788l18.806-18.806
	l-4.034-4.035l-0.019-0.02l-0.021-0.019l-0.715-0.715L18.507,28.906z M38.693,8.764l0.074,0.374c0.047,0.227,0.17,0.45,0.35,0.628
	l3.317,3.319c0.181,0.181,0.406,0.304,0.634,0.348l0.385,0.074l0.298-0.267l3.229-2.83l-0.113-0.465
	c-0.053-0.213-0.168-0.416-0.336-0.584l-3.739-3.736c-0.207-0.208-0.425-0.297-0.57-0.334l-0.478-0.122L38.693,8.764z"/>
</svg>
