<?xml version="1.0" standalone="no"?><!DOCTYPE svg PUBLIC "-//W3C//DTD SVG 1.1//EN" "http://www.w3.org/Graphics/SVG/1.1/DTD/svg11.dtd"><svg class="icon" width="52px" height="52.00px" viewBox="0 0 1024 1024" version="1.1" xmlns="http://www.w3.org/2000/svg"><path d="M509.99329 973.035712c-254.084504 0-460.795484-206.718205-460.795484-460.806322 0-254.084504 206.71098-460.799097 460.795484-460.799097 254.088117 0 460.802709 206.714593 460.802709 460.799097C970.792387 766.321119 764.081407 973.035712 509.99329 973.035712zM509.99329 88.331357c-233.739248 0-423.901646 190.162397-423.901646 423.901646 0 233.742861 190.162397 423.908871 423.901646 423.908871 233.742861 0 423.908871-190.16601 423.908871-423.908871C933.898548 278.493754 743.736151 88.331357 509.99329 88.331357zM509.996903 512.236615M322.009193 598.490819l0-170.250634c-4.728683 7.904016-12.625474 18.911118-23.643413 33.097165-4.732295 4.73952-7.904016 7.914854-9.453753 9.46459l-33.10439-23.650638c50.43326-63.026222 88.259108-128.461941 113.499219-196.249357l47.290438 0c-7.904016 20.504203-16.552195 41.774244-26.00956 63.839021l137.149856 0c-6.318156-26.782622-12.636311-48.070725-18.921955-63.839021l49.660198 0c1.553349 4.721458 3.915884 12.632699 7.091218 23.632575 4.73952 17.375831 7.878729 30.752693 9.460978 40.206445l184.440294 0 0 30.73463-191.527899 0 0 47.301275 172.605944 0 0 28.372095-172.605944 0 0 49.652973 170.243409 0 0 26.013173-170.243409 0 0 49.649361 196.249357 0 0 28.372095L369.303244 574.836569l0 23.650638L322.009193 598.487207zM357.483344 773.466523c-31.551042-1.582248-48.099624-16.548583-49.652973-44.927903l0-61.476486c1.553349-29.925444 18.101931-45.70819 49.652973-47.301275l347.592486 0c31.51853 1.589473 48.070725 18.145281 49.66381 49.660198l0 56.751416c1.549736 33.100778-15.782746 48.840174-52.026345 47.290438L357.483344 773.462911zM681.436029 742.731893c17.325257 0 25.998723-5.534256 25.998723-16.552195L707.434752 674.153352c0-15.735784-7.900404-23.6398-23.647025-23.6398L383.496516 650.513552c-17.379444 0-26.013173 7.904016-26.013173 23.6398l0 49.660198c0 12.592962 8.637341 18.91473 26.013173 18.91473L681.436029 742.72828zM374.035539 345.475597c0 1.593086-0.816411 4.735907-2.362535 9.46459 1.549736-3.142822 0.765837-2.362535-2.366147 2.358923l0 35.47415 151.332291 0L520.639148 345.475597 374.035539 345.475597zM520.635535 421.148967l-151.332291 0 0 49.652973 151.332291 0L520.635535 421.148967zM520.635535 496.815113l-151.332291 0 0 49.649361 151.332291 0L520.635535 496.815113z" fill="#666666" /></svg>