<?xml version="1.0" standalone="no"?><!DOCTYPE svg PUBLIC "-//W3C//DTD SVG 1.1//EN" "http://www.w3.org/Graphics/SVG/1.1/DTD/svg11.dtd"><svg t="1495423177527" class="icon" style="" viewBox="0 0 1024 1024" version="1.1" xmlns="http://www.w3.org/2000/svg" p-id="11854" xmlns:xlink="http://www.w3.org/1999/xlink" width="50" height="50"><defs><style type="text/css"></style></defs><path d="M824.439 894.482H299.67v-54.2h419.85c28.913 0 52.517-24.324 52.517-54.193V244.094h52.4v650.388M271.242 731.89c-14.456 0-26.253-12.16-26.253-27.1 0-14.927 11.798-27.1 26.253-27.1h369.52c14.444 0 26.252 12.173 26.252 27.1 0 14.937-11.808 27.1-26.252 27.1H271.24m0-216.8h369.52c14.444 0 26.252 12.174 26.252 27.1 0 14.938-11.808 27.1-26.252 27.1H271.24c-14.456 0-26.253-12.16-26.253-27.1 0-14.926 11.798-27.1 26.253-27.1z m0-162.594h369.52c14.444 0 26.252 12.173 26.252 27.1 0 14.939-11.808 27.1-26.252 27.1H271.24c-14.456 0-26.253-12.16-26.253-27.1 0-14.927 11.798-27.1 26.253-27.1z m157.413-162.594H640.76c14.444 0 26.252 12.173 26.252 27.1 0 14.932-11.808 27.094-26.252 27.094H428.654c-14.443 0-26.24-12.16-26.24-27.094 0-14.927 11.797-27.1 26.24-27.1z m395.785 0h-52.402v-54.2c0-29.865-23.604-54.2-52.518-54.2H194.766c-29.03 0-52.52 24.335-52.52 54.2V786.09c0 29.87 23.49 54.194 52.52 54.194h52.387v54.2c0 29.875 23.607 54.21 52.518 54.21H824.44c29.017 0 52.506-24.336 52.506-54.21V244.093c0-29.857-23.49-54.193-52.506-54.193z" p-id="11855" fill="#999999"></path></svg>