<?xml version="1.0" standalone="no"?><!DOCTYPE svg PUBLIC "-//W3C//DTD SVG 1.1//EN" "http://www.w3.org/Graphics/SVG/1.1/DTD/svg11.dtd"><svg class="icon" width="50px" height="50.00px" viewBox="0 0 1024 1024" version="1.1" xmlns="http://www.w3.org/2000/svg"><path d="M957.478446 633.602545" fill="#666666" /><path d="M957.478446 437.46954c-8.477069 0-15.349593-6.872524-15.349593-15.349593l0-70.616314c0-8.477069 6.872524-15.349593 15.349593-15.349593s15.349593 6.872524 15.349593 15.349593l0 70.616314C972.828039 430.597015 965.955514 437.46954 957.478446 437.46954z" fill="#666666" /><path d="M957.478446 348.100116" fill="#666666" /><path d="M957.478446 347.68977" fill="#666666" /><path d="M65.155441 223.25676c-8.477069 0-15.349593-6.872524-15.349593-15.349593l0-47.072085c0-8.477069 6.872524-15.349593 15.349593-15.349593l892.323005 0c8.477069 0 15.349593 6.872524 15.349593 15.349593l0 45.133943c0 8.477069-6.872524 15.349593-15.349593 15.349593s-15.349593-6.872524-15.349593-15.349593l0-29.78435-861.623819 0 0 31.722492C80.505034 216.384235 73.632509 223.25676 65.155441 223.25676z" fill="#666666" /><path d="M957.478446 855.659991l-892.323005 0c-8.477069 0-15.349593-6.872524-15.349593-15.349593s6.872524-15.349593 15.349593-15.349593l876.973412 0 0-42.97886c0-8.477069 6.872524-15.349593 15.349593-15.349593s15.349593 6.872524 15.349593 15.349593l0 58.328453C972.828039 848.787466 965.955514 855.659991 957.478446 855.659991z" fill="#666666" /><path d="M957.478446 366.853226c-46.833655 0-84.934414-38.10076-84.934414-84.934414s38.10076-84.934414 84.934414-84.934414c8.477069 0 15.349593 6.872524 15.349593 15.349593s-6.872524 15.349593-15.349593 15.349593c-29.906124 0-54.235229 24.330128-54.235229 54.235229s24.329105 54.235229 54.235229 54.235229c8.477069 0 15.349593 6.872524 15.349593 15.349593S965.955514 366.853226 957.478446 366.853226z" fill="#666666" /><path d="M957.478446 579.969021c-46.833655 0-84.934414-38.10076-84.934414-84.933391 0-46.832631 38.10076-84.934414 84.934414-84.934414 8.477069 0 15.349593 6.872524 15.349593 15.349593s-6.872524 15.349593-15.349593 15.349593c-29.906124 0-54.235229 24.330128-54.235229 54.235229 0 29.9051 24.329105 54.234205 54.235229 54.234205 8.477069 0 15.349593 6.872524 15.349593 15.349593S965.955514 579.969021 957.478446 579.969021z" fill="#666666" /><path d="M957.478446 793.086863c-46.833655 0-84.934414-38.10076-84.934414-84.934414s38.10076-84.934414 84.934414-84.934414c8.477069 0 15.349593 6.872524 15.349593 15.349593s-6.872524 15.349593-15.349593 15.349593c-29.906124 0-54.235229 24.329105-54.235229 54.235229s24.329105 54.235229 54.235229 54.235229c8.477069 0 15.349593 6.872524 15.349593 15.349593S965.955514 793.086863 957.478446 793.086863z" fill="#666666" /><path d="M957.478446 652.022057c-8.477069 0-15.349593-6.872524-15.349593-15.349593l0-70.616314c0-8.477069 6.872524-15.349593 15.349593-15.349593s15.349593 6.872524 15.349593 15.349593l0 70.616314C972.828039 645.149533 965.955514 652.022057 957.478446 652.022057z" fill="#666666" /><path d="M65.317123 633.602545" fill="#666666" /><path d="M65.317123 437.46954c-8.477069 0-15.349593-6.872524-15.349593-15.349593l0-70.616314c0-8.477069 6.872524-15.349593 15.349593-15.349593s15.349593 6.872524 15.349593 15.349593l0 70.616314C80.666716 430.597015 73.794192 437.46954 65.317123 437.46954z" fill="#666666" /><path d="M65.317123 348.100116" fill="#666666" /><path d="M65.317123 347.68977" fill="#666666" /><path d="M65.317123 855.659991c-8.477069 0-15.349593-6.872524-15.349593-15.349593l0-58.328453c0-8.477069 6.872524-15.349593 15.349593-15.349593s15.349593 6.872524 15.349593 15.349593l0 58.328453C80.666716 848.787466 73.794192 855.659991 65.317123 855.659991z" fill="#666666" /><path d="M65.317123 366.853226c-8.477069 0-15.349593-6.872524-15.349593-15.349593s6.872524-15.349593 15.349593-15.349593c29.9051 0 54.235229-24.330128 54.235229-54.235229s-24.330128-54.235229-54.235229-54.235229c-8.477069 0-15.349593-6.872524-15.349593-15.349593s6.872524-15.349593 15.349593-15.349593c46.833655 0 84.934414 38.10076 84.934414 84.934414S112.149754 366.853226 65.317123 366.853226z" fill="#666666" /><path d="M65.317123 579.969021c-8.477069 0-15.349593-6.872524-15.349593-15.349593s6.872524-15.349593 15.349593-15.349593c29.9051 0 54.235229-24.329105 54.235229-54.233182 0-29.9051-24.330128-54.235229-54.235229-54.235229-8.477069 0-15.349593-6.872524-15.349593-15.349593s6.872524-15.349593 15.349593-15.349593c46.833655 0 84.934414 38.101783 84.934414 84.934414C150.251537 541.869285 112.149754 579.969021 65.317123 579.969021z" fill="#666666" /><path d="M65.317123 793.086863c-8.477069 0-15.349593-6.872524-15.349593-15.349593s6.872524-15.349593 15.349593-15.349593c29.9051 0 54.235229-24.329105 54.235229-54.235229s-24.330128-54.235229-54.235229-54.235229c-8.477069 0-15.349593-6.872524-15.349593-15.349593s6.872524-15.349593 15.349593-15.349593c46.833655 0 84.934414 38.10076 84.934414 84.934414S112.149754 793.086863 65.317123 793.086863z" fill="#666666" /><path d="M65.317123 652.022057c-8.477069 0-15.349593-6.872524-15.349593-15.349593l0-70.616314c0-8.477069 6.872524-15.349593 15.349593-15.349593s15.349593 6.872524 15.349593 15.349593l0 70.616314C80.666716 645.149533 73.794192 652.022057 65.317123 652.022057z" fill="#666666" /><path d="M487.498468 699.370435c3.149736-18.379603 4.200672-35.184337 4.200672-58.81657L491.69914 589.089749l-77.196173 0c-23.63121 0-36.760229 1.049912-54.614875 4.200672l0-39.386032c17.854647 3.151783 30.983665 4.200672 54.614875 4.200672l77.196173 0 0-25.207102-20.481474-30.982642-56.715723 0c-23.63121 0-36.760229 1.049912-54.614875 4.200672l0-39.386032c17.854647 3.15076 30.983665 4.200672 54.614875 4.200672l36.760229 0-81.396845-124.984572c-15.228843-23.63121-23.63121-35.709293-31.508621-45.687552l56.190767 0c4.200672 12.078083 8.927323 22.056342 25.732058 48.313356l91.90006 148.090826 91.375104-148.090826c15.228843-24.682146 21.530362-36.235272 25.207102-48.313356l56.715723 0c-7.352455 8.927323-18.380626 24.156166-32.558533 45.687552l-80.871889 124.984572 36.760229 0c23.632233 0 37.285185-1.049912 55.140855-4.200672l0 39.386032c-17.85567-3.15076-32.034601-4.200672-55.140855-4.200672l-56.189743 0-21.005406 31.508621 0 24.681122 77.196173 0c23.106254 0 36.760229-1.048889 54.614875-4.200672l0 39.386032c-17.854647-3.15076-32.034601-4.200672-54.614875-4.200672L531.611152 589.089749l0 51.464115c0 26.257014 1.048889 39.910988 4.200672 58.81657L487.498468 699.370435z" fill="#666666" /></svg>