<?xml version="1.0" standalone="no"?><!DOCTYPE svg PUBLIC "-//W3C//DTD SVG 1.1//EN" "http://www.w3.org/Graphics/SVG/1.1/DTD/svg11.dtd"><svg class="icon" width="50px" height="50.00px" viewBox="0 0 1024 1024" version="1.1" xmlns="http://www.w3.org/2000/svg"><path d="M329.95328 255.67232 698.1632 255.67232c14.62272 0 26.43968-11.83744 26.43968-26.4192 0-14.58176-11.81696-26.4192-26.43968-26.4192L329.95328 202.83392c-14.60224 0-26.4192 11.83744-26.4192 26.4192C303.53408 243.83488 315.35104 255.67232 329.95328 255.67232L329.95328 255.67232zM329.95328 402.51392l262.43072 0c14.60224 0 26.35776-11.83744 26.35776-26.4192s-11.75552-26.39872-26.35776-26.39872L329.95328 349.696c-14.60224 0-26.4192 11.81696-26.4192 26.39872S315.35104 402.51392 329.95328 402.51392L329.95328 402.51392zM930.01728 319.5904l-66.21184-38.48192L863.80544 82.18624c0-14.76608-11.96032-26.74688-26.70592-26.74688L191.05792 55.43936c-14.7456 0-26.7264 11.96032-26.7264 26.74688l0 198.94272-66.23232 38.48192-52.79744 26.46016 0 30.53568 0 2.78528 0 570.30656 0 0c0 3.62496 0.73728 7.08608 2.08896 10.21952 0.1024 0.26624 0.26624 0.47104 0.38912 0.75776 0.7168 1.51552 1.57696 3.01056 2.60096 4.42368 4.62848 6.41024 11.96032 10.56768 20.3776 10.87488 0.32768 0 0.63488 0.1024 0.96256 0.1024L956.416 976.0768c14.60224 0 26.39872-11.83744 26.39872-26.37824L982.81472 380.19072l0-2.78528 0-28.8768L930.01728 319.5904 930.01728 319.5904zM863.80544 342.2208l62.27968 36.18816-62.27968 36.16768L863.80544 342.2208 863.80544 342.2208zM234.27072 108.2368l559.57504 0c13.12768 0 17.18272 4.01408 17.18272 17.1008l0 319.91808-296.96 172.52352-296.93952-172.52352L217.12896 125.35808C217.14944 112.25088 221.184 108.2368 234.27072 108.2368L234.27072 108.2368zM164.33152 414.55616l-62.27968-36.16768 62.27968-36.18816L164.33152 414.55616 164.33152 414.55616zM930.01728 923.21792 98.11968 923.21792 98.11968 437.20704l402.65728 233.8816c0.36864 0.3072 0.8192 0.4096 1.2288 0.59392 0.59392 0.32768 1.16736 0.53248 1.76128 0.79872 0.98304 0.43008 1.96608 0.79872 2.9696 1.1264 0.65536 0.16384 1.29024 0.26624 1.96608 0.43008 0.96256 0.2048 1.92512 0.36864 2.92864 0.45056 0.8192 0.04096 1.6384 0.04096 2.4576 0.04096s1.6384 0 2.4576-0.04096c0.98304-0.1024 1.9456-0.26624 2.92864-0.45056 0.65536-0.18432 1.31072-0.28672 1.96608-0.43008 1.00352-0.32768 1.98656-0.69632 2.99008-1.1264 0.59392-0.26624 1.16736-0.47104 1.76128-0.79872 0.4096-0.2048 0.83968-0.3072 1.2288-0.59392l402.6368-233.8816L930.05824 923.21792 930.01728 923.21792zM930.01728 923.21792" fill="#666666" /></svg>