<?xml version="1.0" encoding="utf-8"?>
<!-- Generator: Adobe Illustrator 16.0.0, SVG Export Plug-In . SVG Version: 6.00 Build 0)  -->
<!DOCTYPE svg PUBLIC "-//W3C//DTD SVG 1.1//EN" "http://www.w3.org/Graphics/SVG/1.1/DTD/svg11.dtd">
<svg version="1.1" id="图层_1" xmlns="http://www.w3.org/2000/svg" xmlns:xlink="http://www.w3.org/1999/xlink" x="0px" y="0px"
	 width="50px" height="50px" viewBox="0 0 50 50" enable-background="new 0 0 50 50" xml:space="preserve">
<path fill="#333333" d="M50,25C50,11.193,38.807,0,25,0C11.193,0,0,11.193,0,25c0,13.807,11.193,25,25,25
	c5.551,0,10.83-1.814,15.15-5.111c0.479-0.365,0.568-1.047,0.205-1.524s-1.047-0.568-1.523-0.204
	C34.887,46.17,30.07,47.826,25,47.826C12.394,47.826,2.174,37.605,2.174,25C2.174,12.394,12.394,2.174,25,2.174
	c12.605,0,22.826,10.22,22.826,22.826c0,4.25-1.162,8.327-3.328,11.875c-0.313,0.514-0.15,1.182,0.361,1.494
	c0.511,0.313,1.182,0.15,1.494-0.361C48.727,34.121,50,29.652,50,25z"/>
<path fill="#333333" d="M26.943,41.204c0,0,0.006,0.836-1.088,0.836c-1.091,0-1.287-0.836-1.287-0.836v-3.756
	c-4.333-0.468-7.109-2.497-8.329-6.091c0,0-0.551-1.239,0.703-1.698c1.253-0.459,1.924,0.667,1.924,0.667
	c1.012,2.736,2.913,4.223,5.702,4.456v-9.03c-3.023-0.726-4.985-1.673-5.887-2.841c-0.902-1.167-1.353-2.465-1.353-3.892
	c0-3.762,2.413-6.045,7.239-6.85V8.958c0,0,0.249-0.861,1.131-0.861c0.882,0,1.242,0.861,1.242,0.861v3.211
	c3.828,0.337,6.338,2.05,7.531,5.138c0,0,0,0.992-0.945,1.259c-0.946,0.267-1.7-0.402-1.7-0.402
	c-0.714-2.115-2.343-3.257-4.886-3.425v8.329c5.358,0.96,8.037,3.374,8.037,7.241c0,1.659-0.608,3.2-1.828,4.621
	c-1.221,1.42-3.289,2.26-6.209,2.521v3.754H26.943z M24.569,14.738c-1.336,0.104-2.403,0.513-3.201,1.226
	c-0.798,0.713-1.197,1.615-1.197,2.705c0,2.141,1.466,3.49,4.398,4.048V14.738z M26.943,34.782c1.582-0.065,2.818-0.499,3.707-1.304
	c0.889-0.806,1.334-1.771,1.334-2.9c0-2.398-1.682-3.833-5.041-4.301V34.782z"/>
</svg>
