<?xml version="1.0" standalone="no"?><!DOCTYPE svg PUBLIC "-//W3C//DTD SVG 1.1//EN" "http://www.w3.org/Graphics/SVG/1.1/DTD/svg11.dtd"><svg t="1495422267062" class="icon" style="" viewBox="0 0 1024 1024" version="1.1" xmlns="http://www.w3.org/2000/svg" p-id="4399" xmlns:xlink="http://www.w3.org/1999/xlink" width="50" height="50"><defs><style type="text/css"></style></defs><path d="M498.278316 209.302191 815.858563 351.939553 796.579874 325.515157C796.824969 327.802344 797.229534 332.591492 797.645949 339.607724 802.453879 420.617379 794.636743 516.144907 764.275519 606.307209 720.652954 735.851093 638.527471 825.571738 507.421454 861.39776 489.75568 866.225106 479.391563 884.302012 484.272548 901.773653 489.153533 919.245295 507.431292 929.495524 525.097065 924.668177 679.570125 882.456878 777.129762 775.874697 827.245534 627.048238 860.708187 527.675772 869.161466 424.374384 863.902276 335.761355 863.423289 327.690838 862.932457 321.880529 862.580617 318.597175 861.34144 307.033218 854.007637 296.981117 843.301934 292.172779L525.721684 149.535416C509.034165 142.040417 489.362852 149.343768 481.784575 165.847908 474.206298 182.352047 481.590798 201.807192 498.278316 209.302191L498.278316 209.302191Z" p-id="4400" fill="#999999"></path><path d="M56.888889 56.51329 56.888889 56.51329 56.888889 967.486709C56.888889 967.273961 56.726057 967.111111 56.51329 967.111111L967.486709 967.111111C967.273961 967.111111 967.111111 967.273944 967.111111 967.486709L967.111111 56.51329C967.111111 56.726036 967.273944 56.888889 967.486709 56.888889L56.51329 56.888889C56.726036 56.888889 56.888889 56.726057 56.888889 56.51329L56.888889 56.51329 56.888889 56.51329ZM0 56.51329C0 25.301862 25.3125 0 56.51329 0L967.486709 0C998.698138 0 1024 25.3125 1024 56.51329L1024 967.486709C1024 998.698138 998.687499 1024 967.486709 1024L56.51329 1024C25.301862 1024 0 998.687499 0 967.486709L0 56.51329ZM395.114963 497.675523C379.023655 497.675523 366.801432 510.410535 366.801432 526.119968 366.801432 541.369968 379.477832 554.564412 395.114963 554.564412L480.57921 554.564412 480.57921 640.028661C480.57921 656.119967 493.314222 668.342192 509.023655 668.342192 524.273654 668.342192 537.468099 655.665789 537.468099 640.028661L537.468099 554.564412 622.932343 554.564412C639.023656 554.564412 651.245875 541.829401 651.245875 526.119968 651.245875 510.869968 638.569478 497.675523 622.932343 497.675523L537.468099 497.675523 537.468099 412.211277C537.468099 396.119968 524.733087 383.897746 509.023655 383.897746 493.773654 383.897746 480.57921 396.574145 480.57921 412.211277L480.57921 497.675523 395.114963 497.675523ZM492.377082 147.117834 174.796835 289.755196C164.091131 294.563535 156.757328 304.615636 155.518147 316.179593 155.166306 319.462947 154.675474 325.273256 154.196489 333.343772 148.937297 421.956801 157.390577 525.258189 190.85323 624.630659 240.969004 773.457112 338.528643 880.039293 493.0017 922.250593 510.667473 927.077939 528.945232 916.827716 533.826218 899.356069 538.707203 881.884427 528.343085 863.807522 510.677312 858.980176 379.571297 823.154153 297.445813 733.433515 253.823246 603.889624 223.462021 513.727325 215.644885 418.199797 220.452816 337.190141 220.86923 330.173909 221.273798 325.384761 221.51889 323.097575L202.240203 349.521971 519.820449 206.884609C536.507968 199.38961 543.892467 179.934464 536.314191 163.430325 528.735914 146.926186 509.0646 139.622835 492.377082 147.117834Z" p-id="4401" fill="#999999"></path></svg>