<?xml version="1.0" encoding="utf-8"?>
<!-- Generator: Adobe Illustrator 16.0.0, SVG Export Plug-In . SVG Version: 6.00 Build 0)  -->
<!DOCTYPE svg PUBLIC "-//W3C//DTD SVG 1.1//EN" "http://www.w3.org/Graphics/SVG/1.1/DTD/svg11.dtd">
<svg version="1.1" id="图层_1" xmlns="http://www.w3.org/2000/svg" xmlns:xlink="http://www.w3.org/1999/xlink" x="0px" y="0px"
	 width="50px" height="50px" viewBox="0 0 50 50" enable-background="new 0 0 50 50" xml:space="preserve">
<circle fill="#FFFFFF" cx="25" cy="25" r="25"/>
<path d="M32.061,37.315H17.939c-1.546,0-2.961-1.191-3.224-2.715l-2.039-12.35c-0.133-0.775,0.067-1.553,0.552-2.128
	c0.482-0.574,1.215-0.904,2.007-0.904h19.531c0.793,0,1.525,0.331,2.01,0.905c0.482,0.575,0.682,1.353,0.547,2.135l-2.037,12.336
	C35.02,36.124,33.605,37.315,32.061,37.315z M15.235,21.123c-0.233,0-0.43,0.08-0.552,0.227c-0.124,0.146-0.169,0.354-0.131,0.585
	l2.039,12.351c0.103,0.597,0.733,1.127,1.348,1.127h14.122c0.615,0,1.245-0.531,1.35-1.135l2.037-12.336
	c0.041-0.238-0.005-0.444-0.128-0.591c-0.124-0.146-0.321-0.228-0.554-0.228H15.235z M19.237,26.833
	c-1.05,0-1.903-0.853-1.903-1.902s0.853-1.901,1.903-1.901c1.048,0,1.901,0.852,1.901,1.901
	C21.138,25.979,20.285,26.833,19.237,26.833z M19.237,24.931c0,0-0.001,0-0.003,0.002l0.002,0.949L19.237,24.931z M30.705,26.833
	c-1.049,0-1.902-0.853-1.902-1.902s0.854-1.901,1.902-1.901c1.05,0,1.902,0.852,1.902,1.901
	C32.607,25.979,31.755,26.833,30.705,26.833z M30.707,24.931c-0.002,0-0.002,0-0.002,0v0.951L30.707,24.931z M31.658,18.294
	c-0.527,0-0.951-0.426-0.951-0.952c0-2.722-3.039-4.756-5.758-4.756c-2.78,0-5.656,1.776-5.656,4.745
	c0,0.524-0.427,0.951-0.952,0.951s-0.951-0.427-0.951-0.951c0-4.161,3.844-6.646,7.56-6.646c3.622,0,7.659,2.733,7.659,6.657
	C32.609,17.868,32.184,18.294,31.658,18.294z"/>
</svg>
